<svg xmlns="http://www.w3.org/2000/svg" viewBox="14.845 56 68 68"><rect x="14.845" y="56" width="68" height="68" fill="#E4DFD6"/><path fill="#141414" fill-rule="nonzero" d="M48.890569823545704 110.14418889821118Q44.91286662687311 110.14418889821118 41.439227985821724 108.5761427689887Q37.965589344770336 107.00809663976622 35.33807167852342 104.22828371960973Q32.7105540122765 101.44847079945325 31.230277006138266 97.79894750754605Q29.75000000000003 94.14942421563885 29.75000000000003 89.9864698902694Q29.75000000000003 85.7964553454388 31.248317152445715 82.14242201695474Q32.7466343048914 78.48838868847068 35.39219211744577 75.72661591462165Q38.03774993000013 72.9648431407726 41.5023684978978 71.41032712128069Q44.966987065795465 69.85581110178879 48.908609969853146 69.85581110178879Q53.50797830219085 69.85581110178879 57.49990441796864 72.00285360936076Q61.49183053374643 74.14989611693274 64.15473568323362 77.84868340649811L62.01564693218622 79.02403705141352Q59.6080750685018 75.7727758213776 56.12993316651536 74.00317721622919Q52.65179126452891 72.23357861108077 48.899589896699425 72.23357861108077Q45.407571480295076 72.23357861108077 42.36515077590227 73.63683859072503Q39.32273007150947 75.04009857036931 37.02617032316823 77.50352289641263Q34.729610574827 79.96694722245596 33.43319907863636 83.18039613644041Q32.13678758244573 86.39384505042486 32.13678758244573 90.00451003657686Q32.13678758244573 93.64362086093928 33.4425655564774 96.85706977492373Q34.74834353050907 100.07051868890818 37.04975972011448 102.5200665005336Q39.351175909719885 104.96961431215902 42.398106650689556 106.36350781396226Q45.44503739165923 107.75740131576549 48.908609969853146 107.75740131576549Q51.966985616787724 107.75740131576549 54.68677566705395 106.65873184394036Q57.40656571732018 105.56006237211523 59.583439681851814 103.61353990204906Q61.76031364638345 101.66701743198288 63.218733279012 99.0905025624725Q64.67715291164055 96.51398769296212 65.1940547676177 93.5770298532737H52.942512033571944V91.30750322182642H67.93816767805563Q67.74251085745581 95.21929466892443 66.17862836012287 98.63153159697812Q64.61474586278993 102.04376852503181 62.00145111564823 104.6282710292758Q59.38815636850653 107.21277353351977 56.03524272532667 108.67848121586547Q52.68232908214681 110.14418889821118 48.890569823545704 110.14418889821118Z"/></svg>